# xmcd
#
# Track frame offsets:
#	150
#	17209
#	33343
#	51132
#	71713
#	83317
#	93704
#	113621
#	123977
#	139705
#	156250
#	168403
#
# Disc length: 2461 seconds
#
# Revision: 1
# Processed by: cddbd v1.5.1PL0 Copyright (c) Steve Scherf et al.
# Submitted via: audiograbber 1.83.01
#
DISCID=96099b0c
DTITLE=The Windy City Strugglers - Kingfisher
DYEAR=2005
DGENRE=Blues
TTITLE0=I Can Change
TTITLE1=Struggle No More
TTITLE2=She Drives
TTITLE3=Waltz Of Wind
TTITLE4=What About That
TTITLE5=Kingfisher
TTITLE6=Fast Forward
TTITLE7=Short Story
TTITLE8=Old Fashioned Love
TTITLE9=Mountain Girl
TTITLE10=Loving You Is Not An Easy Game
TTITLE11=Pure White
EXTD=
EXTT0=
EXTT1=
EXTT2=
EXTT3=
EXTT4=
EXTT5=
EXTT6=
EXTT7=
EXTT8=
EXTT9=
EXTT10=
EXTT11=
PLAYORDER=
